HIERARCHY
ROOT Hips
{
  OFFSET 52.7302 85.9696 49.9351
  CHANNELS 6 Xposition Yposition Zposition Zrotation Xrotation Yrotation
  JOINT spine
  {
    OFFSET 0 6.3926 0.367606
    CHANNELS 3 Zrotation Xrotation Yrotation
    JOINT spine1
    {
      OFFSET 0 9.17611 0
      CHANNELS 3 Zrotation Xrotation Yrotation
      JOINT spine2
      {
        OFFSET 0 8.79238 0
        CHANNELS 3 Zrotation Xrotation Yrotation
        JOINT Neck
        {
          OFFSET 0 22.5737 1.07624
          CHANNELS 3 Zrotation Xrotation Yrotation
          JOINT Head
          {
            OFFSET 0 6.82011 0
            CHANNELS 3 Zrotation Xrotation Yrotation
            End Site
            {
              OFFSET 0 16.5085 -5.44427
            }
          }
        }
        JOINT RightShoulder
        {
          OFFSET -3.70221 9.49509 -0.515508
          CHANNELS 3 Zrotation Xrotation Yrotation
          JOINT RightArm
          {
            OFFSET 0 12.4537 0
            CHANNELS 3 Zrotation Xrotation Yrotation
            JOINT RightArmRoll
            {
              OFFSET 0 6.28686 0
              CHANNELS 3 Zrotation Xrotation Yrotation
              JOINT RightForeArm
              {
                OFFSET 0 18.3114 0
                CHANNELS 3 Zrotation Xrotation Yrotation
                JOINT RightForeArmRoll
                {
                  OFFSET 0 7.05482 0
                  CHANNELS 3 Zrotation Xrotation Yrotation
                  JOINT RightHand
                  {
                    OFFSET 0 14.1575 0
                    CHANNELS 3 Zrotation Xrotation Yrotation
                    End Site
                    {
                      OFFSET 0 0 0
                    }
                  }
                }
              }
            }
          }
        }
        JOINT LeftShoulder
        {
          OFFSET 3.70221 9.49509 -0.515508
          CHANNELS 3 Zrotation Xrotation Yrotation
          JOINT LeftArm
          {
            OFFSET 0 12.4537 0
            CHANNELS 3 Zrotation Xrotation Yrotation
            JOINT LeftArmRoll
            {
              OFFSET 0 6.28686 0
              CHANNELS 3 Zrotation Xrotation Yrotation
              JOINT LeftForeArm
              {
                OFFSET 0 18.3114 0
                CHANNELS 3 Zrotation Xrotation Yrotation
                JOINT LeftForeArmRoll
                {
                  OFFSET 0 7.05482 0
                  CHANNELS 3 Zrotation Xrotation Yrotation
                  JOINT LeftHand
                  {
                    OFFSET 0 14.1575 0
                    CHANNELS 3 Zrotation Xrotation Yrotation
                    End Site
                    {
                      OFFSET 0 0 0
                    }
                  }
                }
              }
            }
          }
        }
      }
    }
  }
  JOINT RightUpLeg
  {
    OFFSET -5.66616 -1.03903 -0.87161
    CHANNELS 3 Zrotation Xrotation Yrotation
    JOINT RightUpLegRoll
    {
      OFFSET 0 16.6005 0
      CHANNELS 3 Zrotation Xrotation Yrotation
      JOINT RightLeg
      {
        OFFSET 0 -20.5572 0
        CHANNELS 3 Zrotation Xrotation Yrotation
        JOINT RightLegRoll
        {
          OFFSET 0 20.6244 0
          CHANNELS 3 Zrotation Xrotation Yrotation
          JOINT RightFoot
          {
            OFFSET 0 17.1664 0
            CHANNELS 3 Zrotation Xrotation Yrotation
            JOINT RightToeBase
            {
              OFFSET 0 14.3502 0
              CHANNELS 3 Zrotation Xrotation Yrotation
              End Site
              {
                OFFSET 0.00608252 6.94971 -0.80106
              }
            }
          }
        }
      }
    }
  }
  JOINT LeftUpLeg
  {
    OFFSET 5.66616 -1.03903 -0.87161
    CHANNELS 3 Zrotation Xrotation Yrotation
    JOINT LeftUpLegRoll
    {
      OFFSET 0 16.6006 0
      CHANNELS 3 Zrotation Xrotation Yrotation
      JOINT LeftLeg
      {
        OFFSET 0 20.5571 0
        CHANNELS 3 Zrotation Xrotation Yrotation
        JOINT LeftLegRoll
        {
          OFFSET 0 20.8151 0
          CHANNELS 3 Zrotation Xrotation Yrotation
          JOINT LeftFoot
          {
            OFFSET 0 16.9757 0
            CHANNELS 3 Zrotation Xrotation Yrotation
            JOINT LeftToeBase
            {
              OFFSET 0 14.3502 0
              CHANNELS 3 Zrotation Xrotation Yrotation
              End Site
              {
                OFFSET -0.0272592 6.94971 -0.801061
              }
            }
          }
        }
      }
    }
  }
}
MOTION
Frames: 11
Frame Time: 0.00208333
52.5603 56.0354 9.70685 3.94177 -10.5884 3.2385 -1.17581 -0.982127 -0.805887 -2.34882 2.06326 -1.47844 -2.33314 3.70732 -1.44023 4.38936 20.0634 0.688163 -4.4606 -1.22732 1.90256 74.0108 4.60624 0.317152 98.0472 17.6801 -21.7122 -2.16652e-005 -2.02111e-006 6.56264e-006 20.1511 56.5452 -11.2466 1.54471e-006 -3.15942e-006 -3 8.02893 -4.95115 0.697513 -66.9201 -2.57698 2.31453 -99.1949 19.1157 20.473 -9.49341e-006 -3.54881e-006 -4.21517e-007 -24.0996 51.4916 14.6376 3.00002e-006 2.81312e-006 3 -8.02887 -4.95088 -0.697423 149.396 67.1946 31.319 -180 1.52561e-005 178.934 -178.901 74.7165 176.553 1.84783e-006 -3.52178e-006 1.19232 -16.6737 65.365 17.5822 8.13651 25.2329 -3.48744 -160.589 67.9611 -20.3657 4.54188e-006 -4.6773e-006 -1.1812 1.82765 -75.2106 3.36669 -4.95922e-006 -7.80177e-006 -1.44756 16.0675 63.4635 -16.3816 -8.13655 25.2336 3.4865 
52.5631 56.0357 9.70446 3.94404 -10.5834 3.24002 -1.17612 -0.982557 -0.806487 -2.34988 2.06166 -1.47967 -2.3342 3.70572 -1.44143 4.38738 20.0784 0.687119 -4.45547 -1.22977 1.90241 74.0166 4.60615 0.316193 98.0453 17.6807 -21.7083 -2.16652e-005 -2.02111e-006 6.56264e-006 20.1504 56.5462 -11.247 1.54471e-006 -3.15942e-006 -3 8.02893 -4.95115 0.697513 -66.9214 -2.56495 2.3083 -99.1875 19.1142 20.4663 -9.49341e-006 -3.54881e-006 -4.21517e-007 -24.0979 51.4894 14.6359 3.00002e-006 2.81312e-006 3 -8.02887 -4.95088 -0.697423 149.377 67.1998 31.3369 -180 1.52561e-005 178.934 -178.901 74.7184 176.553 1.84783e-006 -3.52178e-006 1.19232 -16.6732 65.3643 17.5817 8.13651 25.2329 -3.48744 -160.593 67.9684 -20.3639 4.54188e-006 -4.6773e-006 -1.1812 1.82369 -75.2127 3.36343 -4.95922e-006 -7.80177e-006 -1.44756 16.0679 63.4642 -16.382 -8.13655 25.2336 3.4865 
52.5699 56.0273 9.69803 3.94644 -10.5784 3.24153 -1.17639 -0.98302 -0.807063 -2.3509 2.05998 -1.48087 -2.33522 3.70403 -1.4426 4.38447 20.0932 0.686237 -4.44954 -1.23204 1.90217 74.0216 4.60555 0.315135 98.0444 17.6812 -21.7042 -2.16652e-005 -2.02111e-006 6.56264e-006 20.1495 56.547 -11.2474 1.54471e-006 -3.15942e-006 -3 8.02893 -4.95115 0.697513 -66.9224 -2.5524 2.30178 -99.1808 19.1122 20.4592 -9.49341e-006 -3.54881e-006 -4.21517e-007 -24.0958 51.487 14.6339 3.00002e-006 2.81312e-006 3 -8.02887 -4.95088 -0.697423 149.357 67.2049 31.3553 -180 1.52561e-005 178.934 -178.901 74.7205 176.553 1.84783e-006 -3.52178e-006 1.19232 -16.6728 65.3636 17.5813 8.13651 25.2329 -3.48744 -160.598 67.9756 -20.3623 4.54188e-006 -4.6773e-006 -1.1812 1.81931 -75.2149 3.35982 -4.95922e-006 -7.80177e-006 -1.44756 16.0682 63.4648 -16.3825 -8.13655 25.2336 3.4865 
52.567 56.0275 9.70339 3.94893 -10.5734 3.24305 -1.17665 -0.983506 -0.807623 -2.3519 2.05823 -1.48204 -2.33621 3.70228 -1.44376 4.3809 20.1077 0.685469 -4.44304 -1.23419 1.90186 74.026 4.6046 0.314008 98.0442 17.6816 -21.7002 -2.16652e-005 -2.02111e-006 6.56264e-006 20.1485 56.5478 -11.2477 1.54471e-006 -3.15942e-006 -3 8.02893 -4.95115 0.697513 -66.9232 -2.53951 2.29505 -99.1745 19.1099 20.4518 -9.49341e-006 -3.54881e-006 -4.21517e-007 -24.0934 51.4844 14.6317 3.00002e-006 2.81312e-006 3 -8.02887 -4.95088 -0.697423 149.336 67.21 31.374 -180 1.52561e-005 178.934 -178.901 74.7226 176.552 1.84783e-006 -3.52178e-006 1.19232 -16.6723 65.363 17.5808 8.13651 25.2329 -3.48744 -160.602 67.9829 -20.3607 4.54188e-006 -4.6773e-006 -1.1812 1.81462 -75.2171 3.35598 -4.95922e-006 -7.80177e-006 -1.44756 16.0686 63.4655 -16.3829 -8.13655 25.2336 3.4865 
52.5693 56.0162 9.701 3.95148 -10.5684 3.24458 -1.17689 -0.984004 -0.808173 -2.35287 2.05644 -1.48321 -2.33718 3.70049 -1.44489 4.37696 20.1221 0.684765 -4.43621 -1.23627 1.90151 74.0301 4.60343 0.312843 98.0444 17.682 -21.6962 -2.16652e-005 -2.02111e-006 6.56264e-006 20.1475 56.5485 -11.2479 1.54471e-006 -3.15942e-006 -3 8.02893 -4.95115 0.697513 -66.9239 -2.52641 2.2882 -99.1685 19.1074 20.4443 -9.49341e-006 -3.54881e-006 -4.21517e-007 -24.0909 51.4818 14.6294 3.00002e-006 2.81312e-006 3 -8.02887 -4.95088 -0.697423 149.316 67.2151 31.3928 -180 1.52561e-005 178.934 -178.901 74.7248 176.552 1.84783e-006 -3.52178e-006 1.19232 -16.6719 65.3623 17.5803 8.13651 25.2329 -3.48744 -160.607 67.9901 -20.3591 4.54188e-006 -4.6773e-006 -1.1812 1.80976 -75.2194 3.352 -4.95922e-006 -7.80177e-006 -1.44756 16.069 63.4662 -16.3834 -8.13655 25.2336 3.4865 
52.5703 56.016 9.70265 3.95404 -10.5633 3.2461 -1.17713 -0.984506 -0.80872 -2.35385 2.05465 -1.48437 -2.33815 3.6987 -1.44603 4.37293 20.1365 0.684077 -4.4293 -1.23833 1.90115 74.0341 4.60222 0.311668 98.0446 17.6823 -21.6921 -2.16652e-005 -2.02111e-006 6.56264e-006 20.1464 56.5492 -11.2482 1.54471e-006 -3.15942e-006 -3 8.02893 -4.95115 0.697513 -66.9246 -2.51326 2.28133 -99.1625 19.1049 20.4367 -9.49341e-006 -3.54881e-006 -4.21517e-007 -24.0883 51.4791 14.6271 3.00002e-006 2.81312e-006 3 -8.02887 -4.95088 -0.697423 149.295 67.2202 31.4118 -180 1.52561e-005 178.934 -178.901 74.727 176.552 1.84783e-006 -3.52178e-006 1.19232 -16.6714 65.3616 17.5798 8.13651 25.2329 -3.48744 -160.611 67.9973 -20.3576 4.54188e-006 -4.6773e-006 -1.1812 1.80485 -75.2216 3.34798 -4.95922e-006 -7.80177e-006 -1.44756 16.0694 63.4669 -16.3838 -8.13655 25.2336 3.4865 
52.5751 56.0328 9.6996 3.95657 -10.5583 3.24762 -1.17738 -0.985001 -0.809272 -2.35483 2.05287 -1.48553 -2.33913 3.69692 -1.44717 4.36909 20.151 0.683357 -4.42255 -1.24043 1.90082 74.0383 4.60111 0.310512 98.0447 17.6827 -21.6881 -2.16652e-005 -2.02111e-006 6.56264e-006 20.1454 56.55 -11.2485 1.54471e-006 -3.15942e-006 -3 8.02893 -4.95115 0.697513 -66.9253 -2.50021 2.27451 -99.1563 19.1025 20.4292 -9.49341e-006 -3.54881e-006 -4.21517e-007 -24.0858 51.4765 14.6248 3.00002e-006 2.81312e-006 3 -8.02887 -4.95088 -0.697423 149.274 67.2253 31.4306 -180 1.52561e-005 178.934 -178.901 74.7291 176.552 1.84783e-006 -3.52178e-006 1.19232 -16.6709 65.3609 17.5793 8.13651 25.2329 -3.48744 -160.616 68.0045 -20.356 4.54188e-006 -4.6773e-006 -1.1812 1.80003 -75.2238 3.34404 -4.95922e-006 -7.80177e-006 -1.44756 16.0698 63.4675 -16.3842 -8.13655 25.2336 3.4865 
52.5743 56.0305 9.69624 3.95904 -10.5533 3.24914 -1.17764 -0.985481 -0.809837 -2.35583 2.05114 -1.48672 -2.34013 3.69519 -1.44833 4.36571 20.1656 0.682556 -4.41621 -1.24261 1.90053 74.0429 4.60026 0.309405 98.0442 17.6831 -21.684 -2.16652e-005 -2.02111e-006 6.56264e-006 20.1445 56.5507 -11.2488 1.54471e-006 -3.15942e-006 -3 8.02893 -4.95115 0.697513 -66.9262 -2.48742 2.26785 -99.1499 19.1003 20.4219 -9.49341e-006 -3.54881e-006 -4.21517e-007 -24.0835 51.474 14.6227 3.00002e-006 2.81312e-006 3 -8.02887 -4.95088 -0.697423 149.254 67.2304 31.4493 -180 1.52561e-005 178.934 -178.901 74.7313 176.551 1.84783e-006 -3.52178e-006 1.19232 -16.6705 65.3602 17.5788 8.13651 25.2329 -3.48744 -160.621 68.0118 -20.3544 4.54188e-006 -4.6773e-006 -1.1812 1.79542 -75.2261 3.34026 -4.95922e-006 -7.80177e-006 -1.44756 16.0702 63.4682 -16.3847 -8.13655 25.2336 3.4865 
52.5718 56.0224 9.69978 3.9614 -10.5483 3.25065 -1.17793 -0.985934 -0.81042 -2.35686 2.04948 -1.48792 -2.34116 3.69353 -1.44951 4.36308 20.1804 0.681625 -4.41052 -1.24494 1.90031 74.0481 4.59981 0.308377 98.0431 17.6837 -21.68 -2.16652e-005 -2.02111e-006 6.56264e-006 20.1436 56.5516 -11.2492 1.54471e-006 -3.15942e-006 -3 8.02893 -4.95115 0.697513 -66.9273 -2.47502 2.26141 -99.143 19.0984 20.4149 -9.49341e-006 -3.54881e-006 -4.21517e-007 -24.0816 51.4716 14.6208 3.00002e-006 2.81312e-006 3 -8.02887 -4.95088 -0.697423 149.234 67.2356 31.4675 -180 1.52561e-005 178.934 -178.901 74.7333 176.551 1.84783e-006 -3.52178e-006 1.19232 -16.67 65.3595 17.5783 8.13651 25.2329 -3.48744 -160.625 68.019 -20.3527 4.54188e-006 -4.6773e-006 -1.1812 1.79115 -75.2282 3.33674 -4.95922e-006 -7.80177e-006 -1.44756 16.0706 63.4689 -16.3851 -8.13655 25.2336 3.4865 
52.5713 56.0206 9.70032 3.96361 -10.5434 3.25217 -1.17825 -0.986352 -0.81103 -2.35795 2.04792 -1.48916 -2.34224 3.69197 -1.45072 4.36148 20.1955 0.680515 -4.40572 -1.24746 1.90019 74.0543 4.59993 0.307456 98.0408 17.6844 -21.6761 -2.16652e-005 -2.02111e-006 6.56264e-006 20.143 56.5526 -11.2496 1.54471e-006 -3.15942e-006 -3 8.02893 -4.95115 0.697513 -66.9287 -2.46319 2.25529 -99.1354 19.097 20.4084 -9.49341e-006 -3.54881e-006 -4.21517e-007 -24.0801 51.4695 14.6192 3.00002e-006 2.81312e-006 3 -8.02887 -4.95088 -0.697423 149.215 67.2407 31.4853 -180 1.52561e-005 178.934 -178.901 74.7352 176.551 1.84783e-006 -3.52178e-006 1.19232 -16.6696 65.3588 17.5778 8.13651 25.2329 -3.48744 -160.629 68.0264 -20.3509 4.54188e-006 -4.6773e-006 -1.1812 1.78736 -75.2303 3.33361 -4.95922e-006 -7.80177e-006 -1.44756 16.0709 63.4695 -16.3856 -8.13655 25.2336 3.4865 
52.5787 56.0179 9.69586 3.96564 -10.5384 3.25368 -1.17861 -0.986725 -0.811673 -2.35909 2.04649 -1.49045 -2.34338 3.69054 -1.45198 4.36119 20.2111 0.679179 -4.40206 -1.25023 1.90021 74.0616 4.60076 0.306673 98.0372 17.6853 -21.6722 -2.16652e-005 -2.02111e-006 6.56264e-006 20.1426 56.5538 -11.2502 1.54471e-006 -3.15942e-006 -3 8.02893 -4.95115 0.697513 -66.9304 -2.45206 2.24959 -99.127 19.0962 20.4024 -9.49341e-006 -3.54881e-006 -4.21517e-007 -24.0792 51.4676 14.6179 3.00002e-006 2.81312e-006 3 -8.02887 -4.95088 -0.697423 149.196 67.2458 31.5024 -180 1.52561e-005 178.934 -178.901 74.7371 176.551 1.84783e-006 -3.52178e-006 1.19232 -16.6692 65.3582 17.5773 8.13651 25.2329 -3.48744 -160.634 68.0338 -20.349 4.54188e-006 -4.6773e-006 -1.1812 1.78417 -75.2323 3.33094 -4.95922e-006 -7.80177e-006 -1.44756 16.0713 63.4702 -16.386 -8.13655 25.2336 3.4865 
